<svg width="402" height="62" viewBox="0 0 402 62" fill="none" xmlns="http://www.w3.org/2000/svg">
<g id="top bar">
<g id="Status bar - iPhone">
<g id="Time">
<path id="Time_2" d="M61.2666 26.4731C61.9085 26.4731 62.5173 26.5921 63.0928 26.8301C63.6683 27.0625 64.1774 27.4277 64.6201 27.9258C65.0684 28.4183 65.4198 29.0519 65.6743 29.8267C65.9289 30.5959 66.0562 31.5228 66.0562 32.6074V32.624C66.0562 33.9688 65.8625 35.1198 65.4751 36.0771C65.0877 37.0345 64.5316 37.7705 63.8066 38.2852C63.0872 38.7943 62.2267 39.0488 61.2251 39.0488C60.4891 39.0488 59.825 38.916 59.2329 38.6504C58.6463 38.3792 58.1593 38.0085 57.772 37.5381C57.3901 37.0622 57.1328 36.5199 57 35.9111L56.9834 35.8198H59.0835L59.1167 35.9028C59.2218 36.1795 59.3713 36.423 59.5649 36.6333C59.7642 36.8436 60.0021 37.0068 60.2788 37.123C60.561 37.2337 60.8765 37.2891 61.2251 37.2891C61.856 37.2891 62.3706 37.1037 62.769 36.7329C63.173 36.3566 63.4746 35.8558 63.6738 35.2305C63.8786 34.5996 63.9948 33.9023 64.0225 33.1387C64.028 33.0557 64.0308 32.9754 64.0308 32.8979C64.0308 32.8149 64.0308 32.7347 64.0308 32.6572L63.6572 30.6567C63.6572 30.203 63.5521 29.7907 63.3418 29.4199C63.1315 29.0492 62.8465 28.7559 62.4868 28.54C62.1326 28.3242 61.7314 28.2163 61.2832 28.2163C60.8516 28.2163 60.4559 28.3215 60.0962 28.5317C59.7365 28.742 59.4487 29.0298 59.2329 29.395C59.0171 29.7547 58.9092 30.1587 58.9092 30.6069V30.6235C58.9092 31.0884 59.0116 31.5007 59.2163 31.8604C59.4211 32.2145 59.7005 32.494 60.0547 32.6987C60.4089 32.9035 60.8128 33.0059 61.2666 33.0059C61.7204 33.0059 62.1271 32.9062 62.4868 32.707C62.8465 32.5078 63.1315 32.2311 63.3418 31.877C63.5521 31.5228 63.6572 31.1216 63.6572 30.6733V30.6567H64.1553V32.8647H63.8647C63.7209 33.1802 63.5078 33.4735 63.2256 33.7446C62.9434 34.0158 62.5947 34.2344 62.1797 34.4004C61.7702 34.5664 61.2887 34.6494 60.7354 34.6494C59.9717 34.6494 59.2965 34.4779 58.71 34.1348C58.1234 33.7917 57.6613 33.3213 57.3237 32.7236C56.9917 32.126 56.8257 31.4508 56.8257 30.6982V30.6816C56.8257 29.8682 57.0138 29.146 57.3901 28.5151C57.772 27.8787 58.2977 27.3807 58.9673 27.021C59.6424 26.6558 60.4089 26.4731 61.2666 26.4731ZM69.8247 37.1396C69.4484 37.1396 69.133 37.0151 68.8784 36.7661C68.6294 36.5116 68.5049 36.2017 68.5049 35.8364C68.5049 35.4657 68.6294 35.1558 68.8784 34.9067C69.133 34.6522 69.4484 34.5249 69.8247 34.5249C70.2065 34.5249 70.522 34.6522 70.771 34.9067C71.02 35.1558 71.1445 35.4657 71.1445 35.8364C71.1445 36.2017 71.02 36.5116 70.771 36.7661C70.522 37.0151 70.2065 37.1396 69.8247 37.1396ZM69.8247 30.9805C69.4484 30.9805 69.133 30.856 68.8784 30.6069C68.6294 30.3524 68.5049 30.0425 68.5049 29.6772C68.5049 29.3065 68.6294 28.9966 68.8784 28.7476C69.133 28.493 69.4484 28.3657 69.8247 28.3657C70.2065 28.3657 70.522 28.493 70.771 28.7476C71.02 28.9966 71.1445 29.3065 71.1445 29.6772C71.1445 30.0425 71.02 30.3524 70.771 30.6069C70.522 30.856 70.2065 30.9805 69.8247 30.9805ZM79.4038 38.75V36.4507H73.5435V34.6992C73.8589 34.1624 74.1743 33.6229 74.4897 33.0806C74.8107 32.5382 75.1344 31.9987 75.4609 31.4619C75.793 30.9196 76.1222 30.3856 76.4487 29.8599C76.7808 29.3286 77.11 28.8057 77.4365 28.291C77.7686 27.7708 78.1006 27.2645 78.4326 26.772H81.4458V34.6826H83.0645V36.4507H81.4458V38.75H79.4038ZM75.5356 34.7324H79.437V28.4819H79.3125C79.069 28.8582 78.8172 29.2456 78.5571 29.644C78.3026 30.0425 78.0452 30.4492 77.7852 30.8643C77.5251 31.2793 77.2677 31.6971 77.0132 32.1177C76.7586 32.5327 76.5068 32.9505 76.2578 33.3711C76.0088 33.7861 75.7681 34.1984 75.5356 34.6079V34.7324ZM88.02 38.75V28.8804H87.8706L84.8906 30.9805V28.9717L88.02 26.772H90.1533V38.75H88.02Z" fill="black"/>
</g>
<g id="Levels">
<path id="Cellular Connection" fill-rule="evenodd" clip-rule="evenodd" d="M307.865 27.5329C307.865 26.8999 307.388 26.3867 306.798 26.3867H305.732C305.143 26.3867 304.665 26.8999 304.665 27.5329V37.4669C304.665 38.0999 305.143 38.6131 305.732 38.6131H306.798C307.388 38.6131 307.865 38.0999 307.865 37.4669V27.5329ZM300.431 28.832H301.498C302.087 28.832 302.564 29.3575 302.564 30.0057V37.4394C302.564 38.0876 302.087 38.6131 301.498 38.6131H300.431C299.842 38.6131 299.364 38.0876 299.364 37.4394V30.0057C299.364 29.3575 299.842 28.832 300.431 28.832ZM296.099 31.481H295.033C294.443 31.481 293.966 32.0132 293.966 32.6697V37.4244C293.966 38.0809 294.443 38.6131 295.033 38.6131H296.099C296.688 38.6131 297.166 38.0809 297.166 37.4244V32.6697C297.166 32.0132 296.688 31.481 296.099 31.481ZM290.798 33.9263H289.732C289.143 33.9263 288.665 34.4509 288.665 35.098V37.4414C288.665 38.0885 289.143 38.6131 289.732 38.6131H290.798C291.388 38.6131 291.865 38.0885 291.865 37.4414V35.098C291.865 34.4509 291.388 33.9263 290.798 33.9263Z" fill="black"/>
<path id="Wifi" fill-rule="evenodd" clip-rule="evenodd" d="M323.436 28.8022C325.924 28.8023 328.316 29.7244 330.118 31.3779C330.254 31.5055 330.471 31.5039 330.604 31.3743L331.902 30.1108C331.97 30.045 332.007 29.956 332.007 29.8633C332.006 29.7706 331.967 29.682 331.899 29.617C327.168 25.2423 319.704 25.2423 314.973 29.617C314.905 29.6819 314.866 29.7705 314.865 29.8632C314.865 29.9559 314.902 30.045 314.97 30.1108L316.268 31.3743C316.401 31.5041 316.618 31.5057 316.754 31.3779C318.557 29.7243 320.949 28.8022 323.436 28.8022ZM323.433 33.0225C324.79 33.0224 326.099 33.5342 327.105 34.4583C327.241 34.5894 327.456 34.5866 327.589 34.4519L328.876 33.1326C328.944 33.0634 328.981 32.9695 328.98 32.8719C328.979 32.7744 328.94 32.6813 328.871 32.6135C325.807 29.7227 321.062 29.7227 317.998 32.6135C317.929 32.6813 317.889 32.7744 317.889 32.872C317.888 32.9696 317.925 33.0635 317.993 33.1326L319.28 34.4519C319.413 34.5866 319.627 34.5894 319.763 34.4583C320.769 33.5348 322.077 33.0231 323.433 33.0225ZM325.958 35.816C325.959 35.9214 325.922 36.023 325.855 36.0968L323.678 38.5515C323.615 38.6236 323.528 38.6642 323.437 38.6642C323.346 38.6642 323.259 38.6236 323.195 38.5515L321.018 36.0968C320.951 36.0229 320.914 35.9213 320.916 35.816C320.918 35.7106 320.959 35.6108 321.029 35.5402C322.419 34.2263 324.455 34.2263 325.845 35.5402C325.915 35.6109 325.956 35.7107 325.958 35.816Z" fill="black"/>
<g id="Frame">
<rect id="Border" opacity="0.35" x="339.507" y="26.5" width="24" height="12" rx="3.8" stroke="black"/>
<path id="Cap" opacity="0.4" d="M365.007 30.5V34.5755C365.812 34.2303 366.335 33.4273 366.335 32.5377C366.335 31.6481 365.812 30.8452 365.007 30.5Z" fill="black"/>
<rect id="Capacity" x="341.007" y="28" width="21" height="9" rx="2.5" fill="black"/>
</g>
</g>
</g>
</g>
</svg>
